<svg width="1728" height="168" viewBox="0 0 1728 168" fill="none" xmlns="http://www.w3.org/2000/svg">
<path fill-rule="evenodd" clip-rule="evenodd" d="M0 0L41 15.5021C82 31.0043 165 62.0086 247 68.4979C329 74.6266 411 55.8798 494 59.1245C576 62.0086 658 87.2446 741 93.3734C823 99.5022 905 87.2446 987 68.4979C1070 49.7511 1152 24.8755 1234 28.1202C1317 31.0043 1399 62.0086 1481 62.0086C1563 62.0086 1646 31.0043 1687 15.5021L1728 0V168H1687C1646 168 1563 168 1481 168C1399 168 1317 168 1234 168C1152 168 1070 168 987 168C905 168 823 168 741 168C658 168 576 168 494 168C411 168 329 168 247 168C165 168 82 168 41 168H0V0Z" fill="white"/>
</svg>
