<svg width="42" height="42" viewBox="0 0 42 42" fill="none" xmlns="http://www.w3.org/2000/svg">
<path fill-rule="evenodd" clip-rule="evenodd" d="M42 21C42 32.598 32.598 42 21 42C9.40202 42 0 32.598 0 21C0 9.40202 9.40202 0 21 0C32.598 0 42 9.40202 42 21ZM20.0794 27.25C18.9139 27.25 17.9688 28.1949 17.9688 29.3603C17.9688 30.5245 18.9139 31.47 20.0794 31.47C21.2439 31.47 22.1888 30.5245 22.1888 29.3603C22.1888 28.1949 21.2439 27.25 20.0794 27.25ZM16.7278 15.6475L15.291 14.496C15.1111 14.3526 15.0051 14.1363 15.0001 13.9051C14.9962 13.6748 15.0946 13.4548 15.269 13.3029C15.269 13.3029 15.7165 12.6133 16.7547 12.0208C17.7882 11.4259 19.1581 10.9958 20.8067 11C22.1444 11 23.3767 11.3676 24.3978 11.9698C25.4192 12.575 26.2438 13.4087 26.77 14.4101C27.1195 15.0767 27.3339 15.8283 27.3346 16.6188C27.3357 17.3991 27.2057 18.1282 26.9663 18.7766C26.7275 19.4243 26.3829 19.9865 25.9935 20.4543C25.2096 21.3907 24.2805 21.9576 23.5158 22.3756C23.2519 22.5185 23.004 22.6443 22.7873 22.7543C22.5846 22.8571 22.4093 22.9461 22.2737 23.0222C22.0817 23.1285 21.9775 23.2172 21.9262 23.2755C21.8751 23.3369 21.8578 23.3619 21.8271 23.4627C21.8089 23.529 21.79 23.6353 21.79 23.7994V24.6276C21.79 25.0553 21.4427 25.4036 21.0143 25.4036H19.145C18.7163 25.4036 18.3687 25.0553 18.3687 24.6276V23.7994C18.3687 23.3735 18.4182 22.956 18.5276 22.5568C18.6361 22.1594 18.8065 21.7815 19.0247 21.4521C19.4613 20.785 20.0531 20.3408 20.6115 20.0309C20.8471 19.9011 21.0814 19.7821 21.3113 19.6653C21.5593 19.5393 21.8021 19.4159 22.0355 19.2847C22.4845 19.0338 22.8853 18.7609 23.1803 18.4656C23.3781 18.2687 23.5315 18.0658 23.6491 17.8361C23.8037 17.5299 23.9109 17.1695 23.9134 16.619C23.914 16.4562 23.8672 16.2417 23.739 15.9968C23.6117 15.7526 23.4039 15.4877 23.1262 15.2495C22.5668 14.77 21.7468 14.4194 20.8065 14.4212C19.7288 14.4249 19.0076 14.6777 18.4516 14.9918C17.8984 15.3078 17.7218 15.6268 17.7218 15.6268C17.4393 15.8729 17.0203 15.8815 16.7278 15.6475Z" fill="#C147E9"/>
</svg>
