<svg width="1728" height="394" viewBox="0 0 1728 394" fill="none" xmlns="http://www.w3.org/2000/svg">
<g clip-path="url(#clip0_51_63)">
<path fill-rule="evenodd" clip-rule="evenodd" d="M0 93.5V0H2.61818V0.935L261.818 93.5V94.4397H261.504L258.886 93.5L2.61818 1.98276V93.5V94.435L261.818 187V187.94H261.504L258.886 187L2.61818 95.4828V187V187.935L261.818 280.5V281.44H261.504L258.886 280.5L2.61818 188.983V280.5V281.435L175.012 343H172.079L2.61818 282.483V343H0V280.5V187V93.5ZM1641.19 343L1468.8 281.435V280.5V188.983L1725.07 280.5L1727.69 281.44H1728V280.5L1468.8 187.935V187V95.4828L1725.07 187L1727.69 187.94H1728V187L1468.8 94.435L1468.8 93.5V1.98276L1725.07 93.5L1727.69 94.4397H1728L1728 93.5L1468.8 0.935V0H1466.18V93.5L1466.18 187V280.5V343H1468.8V282.483L1638.26 343H1641.19ZM1274.65 343L1102.25 281.435V280.5V188.983L1358.52 280.5L1361.14 281.44H1361.45V280.5L1102.25 187.935V187V95.4828L1358.52 187L1361.14 187.94H1361.45V187L1102.25 94.435V93.5V1.98276L1358.52 93.5L1361.14 94.4397H1361.45V93.5L1102.25 0.935V0H1099.64V93.5V187V280.5V343H1102.25V282.483L1271.72 343H1274.65ZM908.103 343L735.709 281.435V280.5V188.983L991.977 280.5L994.595 281.44H994.909V280.5L735.709 187.935V187V95.4828L991.977 187L994.595 187.94H994.909V187L735.709 94.435V93.5V1.98276L991.977 93.5L994.595 94.4397H994.909V93.5L735.709 0.935V0H733.091V93.5V187V280.5V343H735.709V282.483L905.17 343H908.103ZM541.558 343L369.164 281.435V280.5V188.983L625.432 280.5L628.05 281.44H628.364V280.5L369.164 187.935V187V95.4828L625.432 187L628.05 187.94H628.364V187L369.164 94.435L369.164 93.5V1.98276L625.432 93.5L628.05 94.4397H628.364L628.364 93.5L369.164 0.935V0H366.546V93.5L366.546 187V280.5V343H369.164V282.483L538.625 343H541.558ZM261.818 0.939699H261.504L258.886 0H261.818V0.939699ZM1728 0.939699H1727.69L1725.07 0H1728V0.939699ZM1361.14 0.939699H1361.45V0H1358.52L1361.14 0.939699ZM994.909 0.939699H994.595L991.977 0H994.909V0.939699ZM628.05 0.939699H628.364V0H625.432L628.05 0.939699Z" fill="#333333"/>
</g>
<defs>
<clipPath id="clip0_51_63">
<rect width="1728" height="394" fill="white"/>
</clipPath>
</defs>
</svg>
