<svg width="548" height="645" viewBox="0 0 548 645" fill="none" xmlns="http://www.w3.org/2000/svg">
<g clip-path="url(#clip0_546_826)">
<rect width="548" height="645" rx="15" fill="white"/>
<rect y="581" width="40" height="171" fill="#333333"/>
<rect x="40" y="567" width="40" height="185" fill="#333333"/>
<rect x="80" y="556" width="40" height="196" fill="#333333"/>
<rect x="120" y="540" width="40" height="212" fill="#333333"/>
<rect x="160" y="526" width="40" height="226" fill="#333333"/>
<rect x="200" y="505" width="40" height="247" fill="#333333"/>
<rect x="240" y="477" width="40" height="275" fill="#333333"/>
<rect x="280" y="444" width="40" height="308" fill="#333333"/>
<rect x="320" y="415" width="40" height="337" fill="#333333"/>
<rect x="360" y="387" width="40" height="365" fill="#333333"/>
<rect x="400" y="353" width="40" height="399" fill="#333333"/>
<rect x="440" y="290" width="40" height="462" fill="#333333"/>
<rect x="480" y="259" width="40" height="493" fill="#333333"/>
<rect x="520" y="206" width="40" height="546" fill="#333333"/>
<path d="M265.614 358.173L280.982 351.491C282.044 351.029 282.529 349.797 282.067 348.735C281.605 347.672 280.373 347.187 279.311 347.649L263.944 354.331C262.881 354.793 262.396 356.025 262.858 357.087C263.32 358.149 264.552 358.635 265.614 358.173ZM369.26 297.118C367.35 297.948 364.012 301.732 363.135 305.777C362.634 308.082 362.946 310.224 364.041 312.052C363.212 312.909 361.333 314.271 357.085 316.123C355.768 316.44 349.399 315.191 345.587 314.078C346.075 312.354 346.571 310.133 346.845 308.043C347.252 304.908 347.456 300.605 344.471 299.429C341.527 298.27 335.395 295.854 330.758 297.87C323.913 300.846 325.848 307.339 328.095 312.733L322.323 315.243C320.446 316.059 314.367 316.214 310.345 316.314C305.521 316.441 303.599 316.532 302.529 316.997C300.35 317.944 291.36 324.215 286.347 328.72C283.487 331.286 279.073 336.595 280.647 340.216C281.959 343.232 288.656 345.87 291.672 344.559C294.307 343.413 296 340.02 294.547 335.554C295.865 334.398 299.932 331.853 309.011 327.883L315.104 328.215C314.425 330.316 313.526 333.233 312.597 336.26C311.21 340.761 309.779 345.413 309.267 346.714L304.924 357.738C303.673 360.913 304.686 364.388 305.663 367.743C306.286 369.873 306.872 371.884 306.785 373.507C306.534 378.214 303.83 392.839 302.919 395.151C302.379 396.516 302.184 398.739 301.884 402.547C301.557 406.648 301.156 411.757 299.996 414.694C298.967 417.303 297.934 417.983 296.833 418.703C295.875 419.33 294.676 420.114 293.983 421.877C293.78 422.397 293.79 422.973 294.012 423.484C295.871 427.758 300.636 432.981 304.276 436.031C308.51 439.576 311.239 438.834 313.89 437.682C314.952 437.22 315.438 435.988 314.976 434.925C313.18 430.795 309.871 417.838 310.493 415.649C311.047 414.238 315.065 403.051 319.326 391.203C322.793 381.557 326.363 371.627 327.659 368.095C329.143 367.988 331.682 367.834 334.181 367.81C332.017 372.136 327.982 379.445 325.737 382.317C323.367 383.66 322.186 386.659 321.04 389.56C319.159 394.339 328.482 402.546 328.577 402.623C331.04 404.684 334.216 406.898 336.973 405.7C337.699 405.384 338.688 404.682 339.303 403.117C340.427 400.264 338.792 395.244 335.724 388.098C338.196 383.451 348.44 372.578 352.706 368.247C354.926 367.081 357.296 364.157 355.563 360.173C353.687 355.857 340.571 350.457 333.739 348.806C334.874 346.289 336.708 342.328 338.503 338.462C340.573 333.992 342.554 329.714 343.649 327.271C348.578 328.49 360.311 330.702 362.83 329.607C365.404 328.488 371.763 320.725 372.963 317.679C373.18 317.128 373.532 316.425 373.924 315.614C375.703 311.995 378.14 307.034 376.443 303.131C374.724 299.18 373.102 295.447 369.26 297.118ZM370.166 313.77C369.713 314.696 369.317 315.509 369.066 316.144C368.141 318.492 362.599 325.041 361.31 325.713C359.327 326.144 345.856 323.854 343.218 322.815C342.141 322.39 340.927 322.918 340.502 323.996C339.982 325.316 337.299 331.106 334.705 336.703C331.962 342.613 329.379 348.203 328.81 349.636C328.562 350.267 328.632 350.97 328.998 351.535C329.36 352.099 329.976 352.46 330.647 352.495C335.693 352.769 350.662 359.406 351.722 361.845C352.396 363.396 351.491 364.203 350.637 364.602C350.393 364.708 350.17 364.857 349.983 365.046C348.328 366.72 333.747 381.557 331.484 387.303C331.279 387.82 331.289 388.395 331.511 388.906C335.368 397.775 335.759 400.697 335.41 401.585C335.354 401.73 335.305 401.811 335.294 401.845C335.053 401.836 333.943 401.652 331.269 399.411C328.906 397.433 324.821 392.441 324.939 391.095C325.765 388.995 326.793 386.39 327.918 385.9C328.216 385.771 328.484 385.572 328.687 385.326C331.823 381.585 338.206 369.543 339.387 366.54C339.634 365.909 339.566 365.206 339.201 364.64C338.835 364.078 338.22 363.717 337.549 363.682C332.78 363.426 326.251 363.997 325.977 364.022C325.186 364.088 324.503 364.604 324.215 365.339C323.661 366.749 319.641 377.937 315.382 389.784C311.321 401.084 307.125 412.762 306.594 414.114C305.26 417.502 308.58 429.24 310.336 434.43C309.455 434.484 308.504 434.103 306.966 432.815C303.891 430.239 300.12 426.127 298.325 422.78C298.509 422.621 298.764 422.446 299.129 422.207C300.499 421.31 302.379 420.079 303.895 416.229C305.283 412.711 305.695 407.486 306.056 402.875C306.254 400.373 306.481 397.533 306.818 396.685C308.076 393.491 310.723 378.304 310.969 373.727C311.095 371.389 310.379 368.939 309.69 366.566C308.907 363.884 308.099 361.111 308.825 359.267L313.168 348.242C313.739 346.793 315.132 342.27 316.602 337.481C317.988 332.983 319.421 328.327 319.933 327.028C320.18 326.4 320.111 325.695 319.746 325.129C319.38 324.565 318.765 324.206 318.095 324.173L308.741 323.672C308.414 323.657 308.086 323.717 307.79 323.845C291.628 330.873 290.607 333.462 290.224 334.437C290.019 334.953 290.03 335.529 290.252 336.04C291.337 338.535 290.931 340.312 290.041 340.702C288.924 341.018 285.076 339.501 284.508 338.594C284.358 337.824 285.822 334.823 289.147 331.833C294.182 327.312 302.674 321.502 304.135 320.864C304.831 320.649 307.947 320.57 310.452 320.507C316.842 320.341 321.553 320.145 323.991 319.085L331.675 315.744C332.739 315.282 333.222 314.05 332.76 312.988C329.627 305.781 329.139 303.142 332.426 301.713C335.373 300.432 340.187 302.249 342.689 303.233C343.35 304.775 342.263 311.44 341.001 314.642C340.575 315.721 341.103 316.935 342.182 317.359C344.107 318.118 355.628 321.318 358.652 320.003C362.601 318.286 367.293 315.912 368.534 312.753C368.827 312.013 368.671 311.177 368.143 310.586C367.223 309.563 366.91 308.34 367.187 306.861C367.676 304.234 369.832 301.755 370.781 301.068C371.255 301.707 371.964 303.338 372.601 304.801C373.524 306.924 371.423 311.211 370.166 313.77ZM273.967 377.382L295.097 368.194C296.159 367.732 296.644 366.5 296.182 365.438C295.72 364.376 294.488 363.891 293.426 364.352L272.296 373.54C271.234 374.002 270.749 375.234 271.21 376.296C271.672 377.359 272.904 377.844 273.967 377.382ZM288.082 394.085C289.144 393.623 289.629 392.391 289.167 391.329C288.706 390.267 287.474 389.782 286.411 390.244L280.649 392.749C279.586 393.211 279.101 394.443 279.563 395.505C280.025 396.568 281.257 397.053 282.319 396.591L288.082 394.085Z" fill="#333333"/>
<path d="M196.275 65.09C196.275 66.98 195.855 68.63 195.015 70.04C194.175 71.45 192.9 72.545 191.19 73.325C189.51 74.075 187.38 74.45 184.8 74.45C183.6 74.45 182.49 74.375 181.47 74.225C180.45 74.075 179.49 73.865 178.59 73.595C177.69 73.295 176.79 72.935 175.89 72.515V66.17C177.42 66.83 178.98 67.445 180.57 68.015C182.19 68.555 183.72 68.825 185.16 68.825C186.09 68.825 186.84 68.675 187.41 68.375C187.98 68.075 188.4 67.67 188.67 67.16C188.94 66.65 189.075 66.065 189.075 65.405C189.075 64.595 188.85 63.905 188.4 63.335C187.98 62.765 187.35 62.24 186.51 61.76C185.67 61.25 184.635 60.74 183.405 60.23C182.505 59.84 181.62 59.39 180.75 58.88C179.88 58.37 179.1 57.755 178.41 57.035C177.72 56.285 177.165 55.385 176.745 54.335C176.355 53.285 176.16 52.025 176.16 50.555C176.16 48.635 176.61 47 177.51 45.65C178.41 44.27 179.67 43.22 181.29 42.5C182.91 41.78 184.8 41.42 186.96 41.42C188.73 41.42 190.365 41.615 191.865 42.005C193.395 42.395 194.85 42.95 196.23 43.67L193.935 48.98C192.615 48.38 191.355 47.915 190.155 47.585C188.985 47.255 187.845 47.09 186.735 47.09C185.985 47.09 185.355 47.225 184.845 47.495C184.335 47.765 183.945 48.14 183.675 48.62C183.435 49.1 183.315 49.67 183.315 50.33C183.315 51.08 183.51 51.725 183.9 52.265C184.32 52.775 184.965 53.285 185.835 53.795C186.705 54.275 187.815 54.86 189.165 55.55C190.665 56.3 191.94 57.095 192.99 57.935C194.07 58.745 194.88 59.72 195.42 60.86C195.99 62 196.275 63.41 196.275 65.09ZM222.838 49.43V74H217.393L216.448 70.85H216.043C215.563 71.69 214.948 72.38 214.198 72.92C213.478 73.43 212.668 73.805 211.768 74.045C210.868 74.315 209.938 74.45 208.978 74.45C207.388 74.45 205.978 74.135 204.748 73.505C203.518 72.875 202.543 71.9 201.823 70.58C201.133 69.26 200.788 67.55 200.788 65.45V49.43H207.988V63.785C207.988 65.525 208.243 66.845 208.753 67.745C209.263 68.645 210.088 69.095 211.228 69.095C212.398 69.095 213.298 68.78 213.928 68.15C214.558 67.52 214.993 66.605 215.233 65.405C215.503 64.205 215.638 62.735 215.638 60.995V49.43H222.838ZM238.994 74.45C236.654 74.45 234.644 74.015 232.964 73.145C231.284 72.245 229.994 70.865 229.094 69.005C228.194 67.145 227.744 64.76 227.744 61.85C227.744 58.85 228.239 56.405 229.229 54.515C230.249 52.625 231.644 51.23 233.414 50.33C235.214 49.43 237.269 48.98 239.579 48.98C241.079 48.98 242.474 49.145 243.764 49.475C245.054 49.805 246.134 50.195 247.004 50.645L244.889 55.685C243.989 55.295 243.164 54.98 242.414 54.74C241.694 54.5 240.899 54.38 240.029 54.38C238.979 54.38 238.079 54.665 237.329 55.235C236.609 55.775 236.054 56.6 235.664 57.71C235.274 58.79 235.079 60.155 235.079 61.805C235.079 63.425 235.274 64.775 235.664 65.855C236.084 66.905 236.654 67.7 237.374 68.24C238.124 68.75 239.009 69.005 240.029 69.005C241.169 69.005 242.249 68.825 243.269 68.465C244.319 68.075 245.309 67.55 246.239 66.89V72.605C245.249 73.265 244.184 73.73 243.044 74C241.934 74.3 240.584 74.45 238.994 74.45ZM261.275 74.45C258.935 74.45 256.925 74.015 255.245 73.145C253.565 72.245 252.275 70.865 251.375 69.005C250.475 67.145 250.025 64.76 250.025 61.85C250.025 58.85 250.52 56.405 251.51 54.515C252.53 52.625 253.925 51.23 255.695 50.33C257.495 49.43 259.55 48.98 261.86 48.98C263.36 48.98 264.755 49.145 266.045 49.475C267.335 49.805 268.415 50.195 269.285 50.645L267.17 55.685C266.27 55.295 265.445 54.98 264.695 54.74C263.975 54.5 263.18 54.38 262.31 54.38C261.26 54.38 260.36 54.665 259.61 55.235C258.89 55.775 258.335 56.6 257.945 57.71C257.555 58.79 257.36 60.155 257.36 61.805C257.36 63.425 257.555 64.775 257.945 65.855C258.365 66.905 258.935 67.7 259.655 68.24C260.405 68.75 261.29 69.005 262.31 69.005C263.45 69.005 264.53 68.825 265.55 68.465C266.6 68.075 267.59 67.55 268.52 66.89V72.605C267.53 73.265 266.465 73.73 265.325 74C264.215 74.3 262.865 74.45 261.275 74.45ZM283.555 48.98C285.745 48.98 287.635 49.415 289.225 50.285C290.815 51.155 292.045 52.415 292.915 54.065C293.785 55.715 294.22 57.74 294.22 60.14V63.38H279.595C279.655 65.27 280.135 66.755 281.035 67.835C281.965 68.915 283.285 69.455 284.995 69.455C286.495 69.455 287.845 69.305 289.045 69.005C290.275 68.675 291.535 68.18 292.825 67.52V72.695C291.715 73.295 290.5 73.73 289.18 74C287.89 74.3 286.285 74.45 284.365 74.45C282.025 74.45 279.94 74 278.11 73.1C276.31 72.17 274.885 70.775 273.835 68.915C272.815 67.055 272.305 64.715 272.305 61.895C272.305 59.015 272.77 56.63 273.7 54.74C274.66 52.82 275.98 51.38 277.66 50.42C279.37 49.46 281.335 48.98 283.555 48.98ZM283.69 53.75C282.61 53.75 281.71 54.17 280.99 55.01C280.27 55.85 279.85 57.155 279.73 58.925H287.605C287.605 57.935 287.455 57.05 287.155 56.27C286.855 55.49 286.42 54.875 285.85 54.425C285.28 53.975 284.56 53.75 283.69 53.75ZM315.836 66.71C315.836 68.36 315.476 69.77 314.756 70.94C314.066 72.08 313.001 72.95 311.561 73.55C310.121 74.15 308.261 74.45 305.981 74.45C304.331 74.45 302.891 74.33 301.661 74.09C300.431 73.88 299.186 73.52 297.926 73.01V67.475C299.306 68.075 300.731 68.57 302.201 68.96C303.671 69.35 304.901 69.545 305.891 69.545C306.971 69.545 307.736 69.35 308.186 68.96C308.666 68.57 308.906 68.06 308.906 67.43C308.906 67.01 308.786 66.635 308.546 66.305C308.306 65.975 307.826 65.6 307.106 65.18C306.386 64.76 305.321 64.22 303.911 63.56C302.531 62.9 301.391 62.255 300.491 61.625C299.621 60.965 298.961 60.185 298.511 59.285C298.091 58.355 297.881 57.2 297.881 55.82C297.881 53.54 298.736 51.83 300.446 50.69C302.186 49.55 304.466 48.98 307.286 48.98C308.786 48.98 310.196 49.13 311.516 49.43C312.836 49.73 314.201 50.225 315.611 50.915L313.586 55.73C312.806 55.37 312.041 55.055 311.291 54.785C310.541 54.515 309.821 54.305 309.131 54.155C308.471 54.005 307.841 53.93 307.241 53.93C306.461 53.93 305.861 54.065 305.441 54.335C305.051 54.605 304.856 55.01 304.856 55.55C304.856 55.94 304.976 56.3 305.216 56.63C305.456 56.93 305.921 57.275 306.611 57.665C307.301 58.025 308.306 58.49 309.626 59.06C310.976 59.63 312.101 60.23 313.001 60.86C313.931 61.46 314.636 62.225 315.116 63.155C315.596 64.055 315.836 65.24 315.836 66.71ZM337.281 66.71C337.281 68.36 336.921 69.77 336.201 70.94C335.511 72.08 334.446 72.95 333.006 73.55C331.566 74.15 329.706 74.45 327.426 74.45C325.776 74.45 324.336 74.33 323.106 74.09C321.876 73.88 320.631 73.52 319.371 73.01V67.475C320.751 68.075 322.176 68.57 323.646 68.96C325.116 69.35 326.346 69.545 327.336 69.545C328.416 69.545 329.181 69.35 329.631 68.96C330.111 68.57 330.351 68.06 330.351 67.43C330.351 67.01 330.231 66.635 329.991 66.305C329.751 65.975 329.271 65.6 328.551 65.18C327.831 64.76 326.766 64.22 325.356 63.56C323.976 62.9 322.836 62.255 321.936 61.625C321.066 60.965 320.406 60.185 319.956 59.285C319.536 58.355 319.326 57.2 319.326 55.82C319.326 53.54 320.181 51.83 321.891 50.69C323.631 49.55 325.911 48.98 328.731 48.98C330.231 48.98 331.641 49.13 332.961 49.43C334.281 49.73 335.646 50.225 337.056 50.915L335.031 55.73C334.251 55.37 333.486 55.055 332.736 54.785C331.986 54.515 331.266 54.305 330.576 54.155C329.916 54.005 329.286 53.93 328.686 53.93C327.906 53.93 327.306 54.065 326.886 54.335C326.496 54.605 326.301 55.01 326.301 55.55C326.301 55.94 326.421 56.3 326.661 56.63C326.901 56.93 327.366 57.275 328.056 57.665C328.746 58.025 329.751 58.49 331.071 59.06C332.421 59.63 333.546 60.23 334.446 60.86C335.376 61.46 336.081 62.225 336.561 63.155C337.041 64.055 337.281 65.24 337.281 66.71ZM69.87 170.98C72.54 170.98 74.55 171.7 75.9 173.14C77.28 174.55 77.97 176.83 77.97 179.98V196H70.815V181.645C70.815 179.875 70.545 178.555 70.005 177.685C69.495 176.785 68.715 176.335 67.665 176.335C66.165 176.335 65.115 176.965 64.515 178.225C63.915 179.485 63.615 181.3 63.615 183.67V196H56.415V181.645C56.415 180.475 56.295 179.5 56.055 178.72C55.845 177.94 55.515 177.355 55.065 176.965C54.615 176.545 54.015 176.335 53.265 176.335C52.245 176.335 51.435 176.65 50.835 177.28C50.265 177.91 49.86 178.825 49.62 180.025C49.38 181.225 49.26 182.695 49.26 184.435V196H42.06V171.43H47.505L48.54 174.58H48.81C49.26 173.74 49.815 173.065 50.475 172.555C51.165 172.015 51.945 171.625 52.815 171.385C53.715 171.115 54.675 170.98 55.695 170.98C57.375 170.98 58.785 171.28 59.925 171.88C61.095 172.45 62.01 173.35 62.67 174.58H63.075C63.795 173.32 64.755 172.405 65.955 171.835C67.185 171.265 68.49 170.98 69.87 170.98ZM94.3799 170.935C97.4099 170.935 99.7499 171.655 101.4 173.095C103.08 174.505 103.92 176.68 103.92 179.62V196H98.9249L97.5299 192.67H97.3499C96.6899 193.54 96.0149 194.26 95.3249 194.83C94.6349 195.4 93.8399 195.805 92.9399 196.045C92.0399 196.315 90.9449 196.45 89.6549 196.45C88.3049 196.45 87.0899 196.18 86.0099 195.64C84.9599 195.07 84.1199 194.215 83.4899 193.075C82.8599 191.905 82.5449 190.435 82.5449 188.665C82.5449 186.055 83.3999 184.135 85.1099 182.905C86.8499 181.645 89.3999 180.955 92.7599 180.835L96.7199 180.7V179.62C96.7199 178.33 96.4349 177.385 95.8649 176.785C95.2949 176.185 94.5149 175.885 93.5249 175.885C92.5049 175.885 91.4399 176.065 90.3299 176.425C89.2199 176.755 88.1099 177.175 86.9999 177.685L84.7949 173.14C86.1149 172.45 87.5699 171.91 89.1599 171.52C90.7799 171.13 92.5199 170.935 94.3799 170.935ZM94.6499 184.705C92.8799 184.765 91.6349 185.155 90.9149 185.875C90.2249 186.595 89.8799 187.54 89.8799 188.71C89.8799 189.73 90.1199 190.465 90.5999 190.915C91.1099 191.335 91.7699 191.545 92.5799 191.545C93.7199 191.545 94.6949 191.125 95.5049 190.285C96.3449 189.415 96.7649 188.2 96.7649 186.64V184.615L94.6499 184.705ZM117.112 177.1C117.112 178.03 117.067 178.96 116.977 179.89C116.917 180.79 116.827 181.705 116.707 182.635H116.842C116.992 182.215 117.202 181.795 117.472 181.375C117.772 180.955 118.087 180.535 118.417 180.115C118.777 179.695 119.122 179.29 119.452 178.9L125.347 171.43H133.402L124.717 182.095L133.897 196H125.662L119.767 186.055L117.112 188.35V196H109.912V161.8H117.112V177.1ZM146.973 170.98C149.163 170.98 151.053 171.415 152.643 172.285C154.233 173.155 155.463 174.415 156.333 176.065C157.203 177.715 157.638 179.74 157.638 182.14V185.38H143.013C143.073 187.27 143.553 188.755 144.453 189.835C145.383 190.915 146.703 191.455 148.413 191.455C149.913 191.455 151.263 191.305 152.463 191.005C153.693 190.675 154.953 190.18 156.243 189.52V194.695C155.133 195.295 153.918 195.73 152.598 196C151.308 196.3 149.703 196.45 147.783 196.45C145.443 196.45 143.358 196 141.528 195.1C139.728 194.17 138.303 192.775 137.253 190.915C136.233 189.055 135.723 186.715 135.723 183.895C135.723 181.015 136.188 178.63 137.118 176.74C138.078 174.82 139.398 173.38 141.078 172.42C142.788 171.46 144.753 170.98 146.973 170.98ZM147.108 175.75C146.028 175.75 145.128 176.17 144.408 177.01C143.688 177.85 143.268 179.155 143.148 180.925H151.023C151.023 179.935 150.873 179.05 150.573 178.27C150.273 177.49 149.838 176.875 149.268 176.425C148.698 175.975 147.978 175.75 147.108 175.75ZM183.535 170.98C185.725 170.98 187.615 171.415 189.205 172.285C190.795 173.155 192.025 174.415 192.895 176.065C193.765 177.715 194.2 179.74 194.2 182.14V185.38H179.575C179.635 187.27 180.115 188.755 181.015 189.835C181.945 190.915 183.265 191.455 184.975 191.455C186.475 191.455 187.825 191.305 189.025 191.005C190.255 190.675 191.515 190.18 192.805 189.52V194.695C191.695 195.295 190.48 195.73 189.16 196C187.87 196.3 186.265 196.45 184.345 196.45C182.005 196.45 179.92 196 178.09 195.1C176.29 194.17 174.865 192.775 173.815 190.915C172.795 189.055 172.285 186.715 172.285 183.895C172.285 181.015 172.75 178.63 173.68 176.74C174.64 174.82 175.96 173.38 177.64 172.42C179.35 171.46 181.315 170.98 183.535 170.98ZM183.67 175.75C182.59 175.75 181.69 176.17 180.97 177.01C180.25 177.85 179.83 179.155 179.71 180.925H187.585C187.585 179.935 187.435 179.05 187.135 178.27C186.835 177.49 186.4 176.875 185.83 176.425C185.26 175.975 184.54 175.75 183.67 175.75ZM212.622 176.47H207.402V196H200.202V176.47H196.917V173.23L200.292 171.43V169.63C200.292 167.53 200.592 165.91 201.192 164.77C201.792 163.6 202.692 162.775 203.892 162.295C205.092 161.815 206.577 161.575 208.347 161.575C209.577 161.575 210.687 161.68 211.677 161.89C212.667 162.1 213.582 162.34 214.422 162.61L212.757 167.515C212.307 167.365 211.812 167.23 211.272 167.11C210.762 166.96 210.192 166.885 209.562 166.885C208.812 166.885 208.257 167.17 207.897 167.74C207.567 168.31 207.402 169.03 207.402 169.9V171.43H212.622V176.47ZM229.542 176.47H224.322V196H217.122V176.47H213.837V173.23L217.212 171.43V169.63C217.212 167.53 217.512 165.91 218.112 164.77C218.712 163.6 219.612 162.775 220.812 162.295C222.012 161.815 223.497 161.575 225.267 161.575C226.497 161.575 227.607 161.68 228.597 161.89C229.587 162.1 230.502 162.34 231.342 162.61L229.677 167.515C229.227 167.365 228.732 167.23 228.192 167.11C227.682 166.96 227.112 166.885 226.482 166.885C225.732 166.885 225.177 167.17 224.817 167.74C224.487 168.31 224.322 169.03 224.322 169.9V171.43H229.542V176.47ZM254.559 183.67C254.559 185.71 254.289 187.525 253.749 189.115C253.239 190.705 252.489 192.055 251.499 193.165C250.509 194.245 249.294 195.07 247.854 195.64C246.444 196.18 244.854 196.45 243.084 196.45C241.434 196.45 239.904 196.18 238.494 195.64C237.084 195.07 235.869 194.245 234.849 193.165C233.859 192.055 233.079 190.705 232.509 189.115C231.969 187.525 231.699 185.71 231.699 183.67C231.699 180.94 232.164 178.645 233.094 176.785C234.024 174.895 235.344 173.455 237.054 172.465C238.764 171.475 240.819 170.98 243.219 170.98C245.439 170.98 247.389 171.475 249.069 172.465C250.779 173.455 252.114 174.895 253.074 176.785C254.064 178.645 254.559 180.94 254.559 183.67ZM239.034 183.67C239.034 185.29 239.169 186.655 239.439 187.765C239.739 188.845 240.189 189.67 240.789 190.24C241.419 190.78 242.214 191.05 243.174 191.05C244.164 191.05 244.944 190.78 245.514 190.24C246.114 189.67 246.549 188.845 246.819 187.765C247.089 186.655 247.224 185.29 247.224 183.67C247.224 182.05 247.089 180.7 246.819 179.62C246.549 178.54 246.099 177.73 245.469 177.19C244.869 176.65 244.089 176.38 243.129 176.38C241.659 176.38 240.609 176.995 239.979 178.225C239.349 179.425 239.034 181.24 239.034 183.67ZM272.957 170.98C273.347 170.98 273.767 170.995 274.217 171.025C274.667 171.055 275.012 171.1 275.252 171.16L274.667 177.46C274.427 177.4 274.112 177.355 273.722 177.325C273.332 177.265 272.882 177.235 272.372 177.235C271.712 177.235 271.037 177.355 270.347 177.595C269.687 177.805 269.072 178.15 268.502 178.63C267.962 179.11 267.512 179.755 267.152 180.565C266.822 181.345 266.657 182.32 266.657 183.49V196H259.457V171.43H264.857L265.937 175.57H266.297C266.747 174.73 267.302 173.965 267.962 173.275C268.622 172.585 269.372 172.03 270.212 171.61C271.082 171.19 271.997 170.98 272.957 170.98ZM289.544 191.095C290.264 191.095 290.924 191.02 291.524 190.87C292.154 190.72 292.799 190.54 293.459 190.33V195.325C292.709 195.625 291.824 195.88 290.804 196.09C289.814 196.33 288.644 196.45 287.294 196.45C285.854 196.45 284.564 196.21 283.424 195.73C282.314 195.25 281.444 194.425 280.814 193.255C280.184 192.055 279.869 190.405 279.869 188.305V176.47H276.944V173.635L280.454 171.385L282.434 166.21H287.069V171.43H293.189V176.47H287.069V188.305C287.069 189.235 287.294 189.94 287.744 190.42C288.194 190.87 288.794 191.095 289.544 191.095ZM314.606 188.71C314.606 190.36 314.246 191.77 313.526 192.94C312.836 194.08 311.771 194.95 310.331 195.55C308.891 196.15 307.031 196.45 304.751 196.45C303.101 196.45 301.661 196.33 300.431 196.09C299.201 195.88 297.956 195.52 296.696 195.01V189.475C298.076 190.075 299.501 190.57 300.971 190.96C302.441 191.35 303.671 191.545 304.661 191.545C305.741 191.545 306.506 191.35 306.956 190.96C307.436 190.57 307.676 190.06 307.676 189.43C307.676 189.01 307.556 188.635 307.316 188.305C307.076 187.975 306.596 187.6 305.876 187.18C305.156 186.76 304.091 186.22 302.681 185.56C301.301 184.9 300.161 184.255 299.261 183.625C298.391 182.965 297.731 182.185 297.281 181.285C296.861 180.355 296.651 179.2 296.651 177.82C296.651 175.54 297.506 173.83 299.216 172.69C300.956 171.55 303.236 170.98 306.056 170.98C307.556 170.98 308.966 171.13 310.286 171.43C311.606 171.73 312.971 172.225 314.381 172.915L312.356 177.73C311.576 177.37 310.811 177.055 310.061 176.785C309.311 176.515 308.591 176.305 307.901 176.155C307.241 176.005 306.611 175.93 306.011 175.93C305.231 175.93 304.631 176.065 304.211 176.335C303.821 176.605 303.626 177.01 303.626 177.55C303.626 177.94 303.746 178.3 303.986 178.63C304.226 178.93 304.691 179.275 305.381 179.665C306.071 180.025 307.076 180.49 308.396 181.06C309.746 181.63 310.871 182.23 311.771 182.86C312.701 183.46 313.406 184.225 313.886 185.155C314.366 186.055 314.606 187.24 314.606 188.71ZM347.037 183.04C346.947 182.53 346.842 182.02 346.722 181.51C346.632 180.97 346.527 180.445 346.407 179.935C346.317 179.425 346.242 178.93 346.182 178.45C346.122 177.94 346.062 177.46 346.002 177.01H345.867C345.837 177.46 345.777 177.94 345.687 178.45C345.627 178.96 345.552 179.485 345.462 180.025C345.372 180.535 345.267 181.06 345.147 181.6C345.057 182.14 344.952 182.68 344.832 183.22L341.997 196H333.582L327.687 171.43H334.707L337.047 183.985C337.197 184.735 337.332 185.5 337.452 186.28C337.572 187.03 337.677 187.765 337.767 188.485C337.887 189.175 337.962 189.805 337.992 190.375H338.172C338.232 189.955 338.307 189.445 338.397 188.845C338.487 188.245 338.577 187.645 338.667 187.045C338.787 186.415 338.892 185.845 338.982 185.335C339.072 184.825 339.147 184.45 339.207 184.21L342.042 171.43H349.872L352.617 184.165C352.707 184.585 352.812 185.185 352.932 185.965C353.052 186.715 353.157 187.495 353.247 188.305C353.367 189.115 353.442 189.805 353.472 190.375H353.607C353.667 189.805 353.742 189.175 353.832 188.485C353.952 187.795 354.072 187.06 354.192 186.28C354.342 185.5 354.492 184.735 354.642 183.985L357.252 171.43H364.092L358.017 196H349.647L347.037 183.04ZM374.807 171.43V196H367.607V171.43H374.807ZM371.252 161.8C372.302 161.8 373.202 162.04 373.952 162.52C374.702 162.97 375.077 163.825 375.077 165.085C375.077 166.315 374.702 167.17 373.952 167.65C373.202 168.13 372.302 168.37 371.252 168.37C370.172 168.37 369.257 168.13 368.507 167.65C367.757 167.17 367.382 166.315 367.382 165.085C367.382 163.825 367.757 162.97 368.507 162.52C369.257 162.04 370.172 161.8 371.252 161.8ZM391.497 191.095C392.217 191.095 392.877 191.02 393.477 190.87C394.107 190.72 394.752 190.54 395.412 190.33V195.325C394.662 195.625 393.777 195.88 392.757 196.09C391.767 196.33 390.597 196.45 389.247 196.45C387.807 196.45 386.517 196.21 385.377 195.73C384.267 195.25 383.397 194.425 382.767 193.255C382.137 192.055 381.822 190.405 381.822 188.305V176.47H378.897V173.635L382.407 171.385L384.387 166.21H389.022V171.43H395.142V176.47H389.022V188.305C389.022 189.235 389.247 189.94 389.697 190.42C390.147 190.87 390.747 191.095 391.497 191.095ZM407.019 168.775C407.019 169.975 406.974 171.13 406.884 172.24C406.824 173.35 406.764 174.13 406.704 174.58H407.064C407.574 173.74 408.144 173.065 408.774 172.555C409.434 172.015 410.169 171.625 410.979 171.385C411.789 171.115 412.659 170.98 413.589 170.98C415.209 170.98 416.634 171.295 417.864 171.925C419.124 172.555 420.114 173.53 420.834 174.85C421.554 176.17 421.914 177.88 421.914 179.98V196H414.669V181.645C414.669 179.875 414.399 178.555 413.859 177.685C413.349 176.785 412.539 176.335 411.429 176.335C410.319 176.335 409.434 176.65 408.774 177.28C408.114 177.91 407.649 178.825 407.379 180.025C407.139 181.225 407.019 182.695 407.019 184.435V196H399.819V161.8H407.019V168.775ZM451.171 177.955H463.636V194.605C462.076 195.175 460.366 195.625 458.506 195.955C456.646 196.285 454.621 196.45 452.431 196.45C449.491 196.45 446.941 195.82 444.781 194.56C442.651 193.3 441.001 191.44 439.831 188.98C438.691 186.52 438.121 183.49 438.121 179.89C438.121 176.53 438.721 173.62 439.921 171.16C441.151 168.7 442.936 166.795 445.276 165.445C447.646 164.095 450.541 163.42 453.961 163.42C455.701 163.42 457.381 163.6 459.001 163.96C460.621 164.32 462.061 164.8 463.321 165.4L460.981 170.845C459.961 170.335 458.866 169.915 457.696 169.585C456.526 169.255 455.281 169.09 453.961 169.09C452.131 169.09 450.586 169.54 449.326 170.44C448.096 171.34 447.166 172.615 446.536 174.265C445.936 175.885 445.636 177.805 445.636 180.025C445.636 182.125 445.906 183.985 446.446 185.605C446.986 187.225 447.796 188.5 448.876 189.43C449.956 190.33 451.321 190.78 452.971 190.78C453.451 190.78 453.916 190.765 454.366 190.735C454.816 190.675 455.236 190.615 455.626 190.555C456.046 190.465 456.406 190.39 456.706 190.33V183.625H451.171V177.955ZM483.368 170.98C483.758 170.98 484.178 170.995 484.628 171.025C485.078 171.055 485.423 171.1 485.663 171.16L485.078 177.46C484.838 177.4 484.523 177.355 484.133 177.325C483.743 177.265 483.293 177.235 482.783 177.235C482.123 177.235 481.448 177.355 480.758 177.595C480.098 177.805 479.483 178.15 478.913 178.63C478.373 179.11 477.923 179.755 477.563 180.565C477.233 181.345 477.068 182.32 477.068 183.49V196H469.868V171.43H475.268L476.348 175.57H476.708C477.158 174.73 477.713 173.965 478.373 173.275C479.033 172.585 479.783 172.03 480.623 171.61C481.493 171.19 482.408 170.98 483.368 170.98ZM496.579 171.43V196H489.379V171.43H496.579ZM493.024 161.8C494.074 161.8 494.974 162.04 495.724 162.52C496.474 162.97 496.849 163.825 496.849 165.085C496.849 166.315 496.474 167.17 495.724 167.65C494.974 168.13 494.074 168.37 493.024 168.37C491.944 168.37 491.029 168.13 490.279 167.65C489.529 167.17 489.154 166.315 489.154 165.085C489.154 163.825 489.529 162.97 490.279 162.52C491.029 162.04 491.944 161.8 493.024 161.8ZM513.27 191.095C513.99 191.095 514.65 191.02 515.25 190.87C515.88 190.72 516.525 190.54 517.185 190.33V195.325C516.435 195.625 515.55 195.88 514.53 196.09C513.54 196.33 512.37 196.45 511.02 196.45C509.58 196.45 508.29 196.21 507.15 195.73C506.04 195.25 505.17 194.425 504.54 193.255C503.91 192.055 503.595 190.405 503.595 188.305V176.47H500.67V173.635L504.18 171.385L506.16 166.21H510.795V171.43H516.915V176.47H510.795V188.305C510.795 189.235 511.02 189.94 511.47 190.42C511.92 190.87 512.52 191.095 513.27 191.095Z" fill="#333333"/>
<path d="M272.232 151.768C273.209 152.744 274.791 152.744 275.768 151.768L291.678 135.858C292.654 134.882 292.654 133.299 291.678 132.322C290.701 131.346 289.118 131.346 288.142 132.322L274 146.464L259.858 132.322C258.882 131.346 257.299 131.346 256.322 132.322C255.346 133.299 255.346 134.882 256.322 135.858L272.232 151.768ZM271.5 87V150H276.5V87H271.5Z" fill="#333333"/>
</g>
<rect x="3" y="3" width="542" height="639" rx="12" stroke="#333333" stroke-width="6"/>
<defs>
<clipPath id="clip0_546_826">
<rect width="548" height="645" rx="15" fill="white"/>
</clipPath>
</defs>
</svg>
