<svg width="131" height="110" viewBox="0 0 131 110" fill="none" xmlns="http://www.w3.org/2000/svg">
<path fill-rule="evenodd" clip-rule="evenodd" d="M86.5743 0C81.0069 0 75.6342 0.833664 70.5743 2.38297C65.5143 0.833663 60.1416 0 54.5743 0C24.4337 0 0 24.4337 0 54.5743C0 84.7148 24.4337 109.149 54.5743 109.149C60.1416 109.149 65.5143 108.315 70.5743 106.766C75.6342 108.315 81.0069 109.149 86.5743 109.149C94.7775 109.149 102.558 107.339 109.538 104.096C106.177 104.657 102.711 104.95 99.1683 104.95C68.1004 104.95 42.9149 82.3962 42.9149 54.5742C42.9149 26.7522 68.1004 4.19798 99.1683 4.19798C102.711 4.19798 106.177 4.49124 109.538 5.05212C102.558 1.80989 94.7774 0 86.5743 0ZM10.9149 54.5742C10.9149 27.2534 35.2011 5.01232 65.4951 4.21984C45.8205 12.4657 32 31.906 32 54.5743C32 77.2425 45.8205 96.6827 65.4949 104.929C35.201 104.136 10.9149 81.895 10.9149 54.5742ZM49.2451 34.9105H54.2924C54.6413 34.9105 54.9233 34.6285 54.9233 34.2796C54.9233 33.9307 54.6413 33.6487 54.2924 33.6487H49.2451C48.8962 33.6487 48.6142 33.9307 48.6142 34.2796C48.6142 34.6285 48.8962 34.9105 49.2451 34.9105ZM85.2073 30.4941C84.5802 30.4941 83.2035 31.1383 82.4755 32.1503C82.0603 32.7269 81.8893 33.3559 81.972 33.9925C81.6401 34.1295 80.9575 34.2802 79.5619 34.2815C79.16 34.2108 77.5505 33.1011 76.6313 32.3358C76.9732 31.9181 77.377 31.3641 77.7038 30.8197C78.1928 30.0026 78.7657 28.8386 78.0824 28.1553C77.4086 27.4815 76.0048 26.0777 74.4817 26.0777C72.2338 26.0777 71.9884 28.1036 71.9612 29.8632H70.0653C69.4489 29.8632 67.7511 29.1761 66.6281 28.7206C65.2804 28.1761 64.7385 27.9704 64.3871 27.9704C63.6716 27.9704 60.435 28.6228 58.5095 29.2651C57.411 29.6304 55.5542 30.5667 55.5542 31.7559C55.5542 32.7465 57.0874 34.2796 58.0779 34.2796C58.9435 34.2796 59.8186 33.5459 59.9536 32.1376C60.4565 31.9768 61.8855 31.7623 64.8704 31.7559L66.5133 32.5793C66.0735 33.0783 65.4748 33.7761 64.8546 34.5004L64.8187 34.5423L64.8186 34.5424L64.8178 34.5434L64.8176 34.5436C63.9056 35.607 62.973 36.6943 62.6792 36.9881L60.1555 39.5118C59.4291 40.2382 59.2913 41.3189 59.1582 42.3625L59.158 42.3642C59.0741 43.0273 58.9946 43.6531 58.7757 44.091C58.141 45.361 55.6375 49.0759 55.1082 49.6052C54.7952 49.9175 54.4741 50.508 53.934 51.5238L53.9196 51.551C53.3391 52.6397 52.6212 53.9862 51.9536 54.6525C51.3561 55.2494 50.9889 55.3131 50.5984 55.38L50.5983 55.38C50.2583 55.438 49.833 55.5106 49.4299 55.9144C49.3113 56.0336 49.2451 56.1939 49.2451 56.3617C49.2451 57.7655 49.934 59.7806 50.5732 61.0601C51.317 62.5478 52.1599 62.6708 53.0306 62.6708C53.3795 62.6708 53.6615 62.3888 53.6615 62.0399C53.6615 60.6835 54.3038 56.7068 54.7385 56.1768C55.0316 55.8831 57.087 53.7004 59.4122 51.2312L60.1145 50.4853C62.2306 48.2374 64.4092 45.9232 65.1915 45.103C65.6142 45.2519 66.3341 45.5143 67.0275 45.8077C65.9101 46.7427 63.9177 48.2771 62.9524 48.8008C62.1381 48.8871 61.4526 49.5712 60.7887 50.2338L60.7852 50.2374C59.6918 51.3314 61.2811 54.7181 61.2981 54.7509C61.7309 55.6159 62.3423 56.609 63.2476 56.609C63.4861 56.609 63.8439 56.5339 64.2016 56.1756C64.8546 55.5226 65.006 53.9396 65.0167 51.597C66.2577 50.6102 70.3934 48.8374 72.0918 48.1535C72.8451 48.0979 73.8508 47.5749 73.8508 46.2664C73.8508 44.8487 70.8767 41.7818 69.1877 40.5055C69.8035 39.9465 70.7858 39.0727 71.7461 38.2203L71.7891 38.1821C72.882 37.2098 73.9235 36.2833 74.5114 35.7471C75.7265 36.6758 78.7019 38.696 79.5291 38.696C80.3745 38.696 83.0635 37.3156 83.7606 36.6184C83.8668 36.5123 84.0122 36.3878 84.1782 36.2458L84.2742 36.1635C85.2004 35.3774 86.4692 34.2998 86.4692 33.0178C86.4692 31.72 86.4692 30.4941 85.2073 30.4941ZM82.8685 35.7263C82.331 36.2638 80.0136 37.4071 79.577 37.438C78.9777 37.3187 75.5316 35.0683 74.9278 34.4645C74.6811 34.2178 74.2824 34.2178 74.0357 34.4645C73.7367 34.7634 72.3278 36.0161 70.9533 37.2383L70.9526 37.2389L70.9082 37.2784C69.4407 38.5812 68.0559 39.8153 67.7265 40.1427C67.582 40.2872 67.5171 40.4897 67.5505 40.6897C67.5827 40.8891 67.7095 41.0626 67.8906 41.1528C69.2514 41.8348 72.589 45.4658 72.589 46.267C72.589 46.7762 72.242 46.8904 71.9581 46.8979C71.878 46.8979 71.7985 46.9124 71.724 46.9421C71.066 47.2058 65.2565 49.5528 63.941 50.8683C63.8224 50.9863 63.7562 51.1465 63.7562 51.3144C63.7562 54.2273 63.5133 55.0816 63.3101 55.2847C63.2799 55.3155 63.2577 55.3319 63.2489 55.3407L63.247 55.3427C63.1814 55.3112 62.8968 55.127 62.4274 54.1869C62.0123 53.3566 61.4836 51.4872 61.6779 51.1295C62.158 50.6487 62.7549 50.0525 63.1246 50.0525C63.2224 50.0525 63.3202 50.0298 63.406 49.9863C64.7215 49.3295 67.9309 46.7699 68.618 46.0822C68.7618 45.9377 68.8275 45.7352 68.7947 45.5352C68.7612 45.3358 68.6344 45.1623 68.4533 45.0721C67.1669 44.4285 65.295 43.802 65.2161 43.7762C64.9896 43.6992 64.7391 43.7598 64.5713 43.9282C64.2614 44.2387 61.9822 46.6596 59.4976 49.2986L59.1953 49.6197L58.9965 49.8309C56.5812 52.3968 54.1466 54.9832 53.8457 55.2847C53.0703 56.0601 52.5776 59.7011 52.4394 61.3459C52.1896 61.2551 51.9725 61.0355 51.7025 60.4948C51.1624 59.4141 50.6148 57.8254 50.5208 56.6853C50.5908 56.6633 50.6823 56.6456 50.8116 56.6235C51.2981 56.5402 51.965 56.426 52.8463 55.5446C53.652 54.7396 54.3934 53.3459 55.047 52.1156C55.4022 51.4481 55.806 50.691 56.0009 50.4973C56.7322 49.7661 59.2874 45.8891 59.905 44.6544C60.2188 44.0268 60.316 43.2688 60.4102 42.5344L60.4117 42.5225C60.5177 41.6878 60.6274 40.8247 61.0495 40.4027L63.5732 37.879C63.9051 37.5471 64.8331 36.4651 65.8142 35.3187L65.8676 35.2565C66.7738 34.2004 67.6982 33.1231 67.9896 32.8317C68.1335 32.6878 68.1991 32.4847 68.1663 32.2847C68.1328 32.0847 68.006 31.9118 67.8249 31.8222L65.3013 30.5604C65.2129 30.5168 65.1152 30.4941 65.018 30.4941C59.7095 30.4941 59.1164 31.0865 58.8937 31.3099C58.7751 31.4279 58.7088 31.5881 58.7088 31.7559C58.7088 32.5755 58.3833 33.0178 58.0905 33.0184C57.7442 32.9717 56.8634 32.0903 56.8154 31.7717C56.8665 31.5408 57.6312 30.8878 58.9088 30.4613C60.8426 29.8171 63.8861 29.2323 64.3663 29.2316C64.5831 29.2555 65.443 29.6036 66.1403 29.8859L66.1543 29.8916C67.9391 30.6134 69.2641 31.125 70.0647 31.125H72.5884C72.9379 31.125 73.2193 30.843 73.2193 30.4941C73.2193 28.1269 73.4016 27.3395 74.4811 27.3395C75.4489 27.3395 76.5606 28.4197 77.1335 28.9919C77.131 29.4973 76.03 31.2077 75.2969 31.9408C75.0496 32.1875 75.0496 32.5862 75.2969 32.8329C75.7373 33.2739 78.5354 35.5414 79.5284 35.5414C80.8256 35.5414 82.4067 35.4493 83.1291 34.7257C83.2988 34.5566 83.3562 34.3067 83.2811 34.0802C83.1499 33.6872 83.2105 33.3118 83.4647 32.9364C83.9152 32.2695 84.8086 31.8436 85.1531 31.7679C85.2073 32.0014 85.2073 32.537 85.2073 33.0178C85.2073 33.7149 84.1121 34.6468 83.4578 35.2026C83.2212 35.4039 83.0143 35.5812 82.8685 35.7263ZM49.2451 41.2197H56.1852C56.5341 41.2197 56.8161 40.9377 56.8161 40.5888C56.8161 40.2399 56.5341 39.9579 56.1852 39.9579H49.2451C48.8962 39.9579 48.6142 40.2399 48.6142 40.5888C48.6142 40.9377 48.8962 41.2197 49.2451 41.2197ZM51.1378 47.5289C51.4867 47.5289 51.7687 47.2468 51.7687 46.8979C51.7687 46.549 51.4867 46.267 51.1378 46.267H49.2451C48.8962 46.267 48.6142 46.549 48.6142 46.8979C48.6142 47.2468 48.8962 47.5289 49.2451 47.5289H51.1378ZM84.1557 80.238V85.76H84.8699V80.238H84.1557ZM90.0029 84.026C90.0128 83.9367 90.0177 83.8648 90.0177 83.8102C90.0177 83.4133 89.9347 83.061 89.7685 82.7534C89.6024 82.4458 89.3718 82.2064 89.0767 82.0353C88.7816 81.8641 88.4456 81.7785 88.0687 81.7785C87.6918 81.7785 87.3533 81.8641 87.0532 82.0353C86.7532 82.2064 86.5176 82.4458 86.3465 82.7534C86.1754 83.061 86.0899 83.4058 86.0899 83.7878C86.0899 84.1748 86.1779 84.5221 86.354 84.8297C86.53 85.1373 86.7792 85.3767 87.1016 85.5479C87.424 85.7191 87.7934 85.8046 88.21 85.8046C88.5374 85.8046 88.8337 85.7501 89.099 85.6409C89.3643 85.5318 89.5863 85.373 89.7648 85.1646L89.3705 84.7032C89.0829 85.0207 88.7035 85.1795 88.2324 85.1795C87.8455 85.1795 87.5219 85.0741 87.2615 84.8632C87.0012 84.6524 86.8487 84.3733 86.804 84.026H90.0029ZM87.2095 82.6939C87.4401 82.4855 87.7265 82.3813 88.0687 82.3813C88.4109 82.3813 88.6973 82.4867 88.9279 82.6976C89.1585 82.9085 89.2937 83.1801 89.3333 83.5125H86.804C86.8437 83.1751 86.9789 82.9023 87.2095 82.6939ZM93.4472 85.5293L93.224 85.0158C93.0703 85.1398 92.8843 85.2018 92.6661 85.2018C92.4677 85.2018 92.3152 85.1448 92.2086 85.0307C92.1019 84.9166 92.0486 84.7528 92.0486 84.5395V82.4036H93.1794V81.8157H92.0486V80.9525H91.3345V81.8157H90.665V82.4036H91.3345V84.5693C91.3345 84.9662 91.4436 85.2713 91.6618 85.4846C91.88 85.698 92.1875 85.8046 92.5843 85.8046C92.7479 85.8046 92.9066 85.7811 93.0604 85.7339C93.2141 85.6868 93.343 85.6186 93.4472 85.5293ZM94.325 80.5506L94.3696 82.5599H94.8978L94.9499 80.5506H94.325ZM96.5196 85.6744C96.8171 85.7612 97.1271 85.8046 97.4495 85.8046C97.9752 85.8046 98.3905 85.6992 98.6955 85.4883C99.0005 85.2775 99.153 84.9935 99.153 84.6362C99.153 84.3683 99.0836 84.16 98.9447 84.0111C98.8059 83.8623 98.6385 83.7568 98.4426 83.6948C98.2467 83.6328 97.99 83.5745 97.6726 83.5199C97.4346 83.4753 97.2498 83.4356 97.1184 83.4009C96.987 83.3661 96.8766 83.3116 96.7874 83.2371C96.6981 83.1627 96.6535 83.061 96.6535 82.932C96.6535 82.7683 96.7328 82.6368 96.8915 82.5376C97.0502 82.4384 97.2808 82.3888 97.5834 82.3888C98.0198 82.3888 98.3992 82.4929 98.7215 82.7013L99.0266 82.1357C98.8579 82.0266 98.6422 81.9398 98.3793 81.8753C98.1165 81.8108 97.8536 81.7785 97.5908 81.7785C97.0899 81.7785 96.6907 81.8864 96.3931 82.1022C96.0955 82.3181 95.9467 82.6046 95.9467 82.9618C95.9467 83.2396 96.0187 83.4554 96.1625 83.6092C96.3063 83.763 96.4786 83.8722 96.6795 83.9367C96.8804 84.0012 97.1395 84.0582 97.4569 84.1079C97.69 84.1476 97.8698 84.1835 97.9962 84.2158C98.1227 84.248 98.2281 84.2989 98.3124 84.3683C98.3967 84.4378 98.4389 84.5321 98.4389 84.6511C98.4389 85.0083 98.1264 85.187 97.5015 85.187C97.2486 85.187 96.9981 85.1497 96.7502 85.0753C96.5022 85.0009 96.2914 84.9017 96.1178 84.7776L95.8203 85.3432C95.9889 85.4772 96.222 85.5876 96.5196 85.6744ZM104.026 83.9218L105.506 85.76H106.384L104.561 83.4455L106.22 81.8157H105.357L103.207 83.7804V80.238H102.493V85.76H103.207V84.6809L104.026 83.9218ZM107.258 80.9227C107.35 81.012 107.465 81.0566 107.604 81.0566C107.743 81.0566 107.858 81.0107 107.95 80.919C108.042 80.8272 108.087 80.7143 108.087 80.5804C108.087 80.4514 108.042 80.3434 107.95 80.2566C107.858 80.1698 107.743 80.1264 107.604 80.1264C107.465 80.1264 107.35 80.1723 107.258 80.2641C107.166 80.3559 107.12 80.4662 107.12 80.5952C107.12 80.7242 107.166 80.8334 107.258 80.9227ZM110.189 85.5442C110.504 85.7178 110.862 85.8046 111.264 85.8046C111.621 85.8046 111.94 85.7315 112.22 85.5851C112.5 85.4387 112.717 85.2291 112.871 84.9562L112.328 84.6139C112.204 84.8024 112.05 84.9438 111.867 85.0381C111.683 85.1324 111.48 85.1795 111.257 85.1795C110.999 85.1795 110.767 85.1225 110.561 85.0083C110.355 84.8942 110.194 84.7318 110.077 84.5209C109.961 84.31 109.903 84.0657 109.903 83.7878C109.903 83.515 109.961 83.2731 110.077 83.0623C110.194 82.8514 110.355 82.6889 110.561 82.5748C110.767 82.4607 110.999 82.4036 111.257 82.4036C111.48 82.4036 111.683 82.4508 111.867 82.545C112.05 82.6393 112.204 82.7807 112.328 82.9692L112.871 82.6195C112.717 82.3466 112.5 82.1382 112.22 81.9943C111.94 81.8504 111.621 81.7785 111.264 81.7785C110.862 81.7785 110.504 81.8641 110.189 82.0353C109.874 82.2064 109.627 82.4446 109.449 82.7497C109.27 83.0548 109.181 83.4009 109.181 83.7878C109.181 84.1748 109.27 84.5209 109.449 84.826C109.627 85.1311 109.874 85.3705 110.189 85.5442ZM115.497 83.9218L116.977 85.76H117.855L116.032 83.4455L117.691 81.8157H116.828L114.679 83.7804V80.238H113.964V85.76H114.679V84.6809L115.497 83.9218ZM107.247 81.8157V85.76H107.961V81.8157H107.247ZM121.627 85.5442C121.939 85.7178 122.291 85.8046 122.683 85.8046C123.075 85.8046 123.426 85.7178 123.736 85.5442C124.046 85.3705 124.289 85.1311 124.465 84.826C124.641 84.5209 124.729 84.1748 124.729 83.7878C124.729 83.4009 124.641 83.0548 124.465 82.7497C124.289 82.4446 124.046 82.2064 123.736 82.0353C123.426 81.8641 123.075 81.7785 122.683 81.7785C122.291 81.7785 121.939 81.8641 121.627 82.0353C121.314 82.2064 121.07 82.4446 120.894 82.7497C120.718 83.0548 120.63 83.4009 120.63 83.7878C120.63 84.1748 120.718 84.5209 120.894 84.826C121.07 85.1311 121.314 85.3705 121.627 85.5442ZM123.364 85.0046C123.163 85.1212 122.936 85.1795 122.683 85.1795C122.43 85.1795 122.203 85.1212 122.002 85.0046C121.801 84.888 121.643 84.7243 121.526 84.5135C121.41 84.3026 121.351 84.0607 121.351 83.7878C121.351 83.515 121.41 83.2731 121.526 83.0623C121.643 82.8514 121.801 82.6889 122.002 82.5748C122.203 82.4607 122.43 82.4036 122.683 82.4036C122.936 82.4036 123.163 82.4607 123.364 82.5748C123.565 82.6889 123.722 82.8514 123.836 83.0623C123.95 83.2731 124.007 83.515 124.007 83.7878C124.007 84.0607 123.95 84.3026 123.836 84.5135C123.722 84.7243 123.565 84.888 123.364 85.0046ZM126.745 81.4734C126.745 81.012 126.958 80.7813 127.385 80.7813C127.588 80.7813 127.771 80.8433 127.935 80.9673L128.151 80.4241C128.052 80.3496 127.933 80.2926 127.794 80.2529C127.655 80.2132 127.506 80.1934 127.347 80.1934C126.936 80.1934 126.616 80.3075 126.388 80.5357C126.16 80.7639 126.046 81.074 126.046 81.466V81.8157H125.376V82.4036H126.046V85.76H126.76V82.4036H127.89V81.8157H126.745V81.4734ZM129.594 81.4734C129.594 81.012 129.807 80.7813 130.234 80.7813C130.437 80.7813 130.621 80.8433 130.784 80.9673L131 80.4241C130.901 80.3496 130.782 80.2926 130.643 80.2529C130.504 80.2132 130.355 80.1934 130.197 80.1934C129.785 80.1934 129.465 80.3075 129.237 80.5357C129.009 80.7639 128.895 81.074 128.895 81.466V81.8157H128.225V82.4036H128.895V85.76H129.609V82.4036H130.74V81.8157H129.594V81.4734ZM100.123 46.7901V41.602H97.3982V46.5805C97.3982 47.3608 97.2643 47.9372 96.9965 48.3099C96.7286 48.6709 96.3094 48.8514 95.7387 48.8514C95.1565 48.8514 94.7256 48.6651 94.4461 48.2924C94.1666 47.9197 94.0268 47.3491 94.0268 46.5805V41.602H91.3018V46.5805C91.3018 47.3491 91.162 47.9197 90.8825 48.2924C90.603 48.6651 90.1721 48.8514 89.5899 48.8514C89.0192 48.8514 88.6 48.6709 88.3322 48.3099C88.0643 47.9372 87.9304 47.3608 87.9304 46.5805V41.602H85.2053V46.7901C85.2053 48.1759 85.578 49.2473 86.3233 50.0043C87.0686 50.7613 88.1458 51.1397 89.5549 51.1397C90.2537 51.1397 90.8592 51.0349 91.3717 50.8253C91.884 50.6157 92.3149 50.278 92.6643 49.8122C93.0137 50.278 93.4446 50.6157 93.957 50.8253C94.481 51.0349 95.0808 51.1397 95.7562 51.1397C97.1537 51.1397 98.2309 50.7613 98.9879 50.0043C99.7448 49.2473 100.123 48.1759 100.123 46.7901ZM105.298 51V41.602H102.573V51H105.298ZM102.712 39.8552C103.027 40.1463 103.434 40.2919 103.935 40.2919C104.436 40.2919 104.843 40.1463 105.158 39.8552C105.472 39.5524 105.63 39.1739 105.63 38.7197C105.63 38.3005 105.472 37.9511 105.158 37.6716C104.843 37.3922 104.436 37.2524 103.935 37.2524C103.434 37.2524 103.027 37.398 102.712 37.6891C102.398 37.9803 102.241 38.3413 102.241 38.7721C102.241 39.203 102.398 39.564 102.712 39.8552ZM112.491 51C112.887 50.8952 113.219 50.7438 113.486 50.5458L112.77 48.6243C112.444 48.8572 112.072 48.9737 111.652 48.9737C111.28 48.9737 110.994 48.8689 110.796 48.6592C110.598 48.438 110.499 48.1294 110.499 47.7334V43.9078H112.823V41.8116H110.499V39.5233H107.774V47.7684C107.774 48.8747 108.077 49.7132 108.683 50.2838C109.288 50.8544 110.156 51.1397 111.285 51.1397C111.705 51.1397 112.106 51.0932 112.491 51ZM123.55 42.5104C122.84 41.8116 121.902 41.4623 120.738 41.4623C120.132 41.4623 119.573 41.5613 119.061 41.7592C118.548 41.9456 118.112 42.2192 117.751 42.5802V38.0385H115.026V51H117.751V46.3534C117.751 45.5149 117.954 44.8861 118.362 44.4668C118.77 44.0359 119.317 43.8205 120.004 43.8205C120.621 43.8205 121.093 44.0068 121.419 44.3795C121.745 44.7405 121.908 45.2937 121.908 46.039V51H124.633V45.6197C124.633 44.2456 124.272 43.2091 123.55 42.5104ZM96.2977 65.6939H93.7124V69.0129C93.037 69.5719 92.2043 69.8514 91.2144 69.8514C90.5506 69.8514 89.9392 69.7058 89.3803 69.4147C88.8213 69.1119 88.3729 68.6694 88.0352 68.0871C87.7091 67.5048 87.5461 66.8003 87.5461 65.9734C87.5461 65.1815 87.7149 64.4828 88.0527 63.8772C88.3904 63.2716 88.862 62.8058 89.4676 62.4797C90.0732 62.142 90.7661 61.9732 91.5463 61.9732C92.7808 61.9732 93.8347 62.4332 94.7081 63.3532L96.5248 61.6762C95.9309 60.9891 95.1972 60.4651 94.3238 60.104C93.4504 59.743 92.478 59.5625 91.4066 59.5625C90.1256 59.5625 88.9727 59.8362 87.9478 60.3835C86.923 60.9309 86.1195 61.6937 85.5372 62.6719C84.9666 63.6385 84.6813 64.7448 84.6813 65.9909C84.6813 67.2835 84.9608 68.4015 85.5197 69.3448C86.0787 70.2765 86.8299 70.9868 87.7732 71.476C88.7165 71.9651 89.7529 72.2096 90.8825 72.2096C92.2218 72.2096 93.3165 71.8952 94.1666 71.2663V72H96.2977V65.6939ZM104.359 68.5937L106.717 72H109.757L107.014 68.0696C107.818 67.7203 108.435 67.2195 108.866 66.5673C109.308 65.9035 109.53 65.1175 109.53 64.2091C109.53 63.3008 109.314 62.5147 108.883 61.8509C108.453 61.1871 107.835 60.6747 107.032 60.3137C106.24 59.9527 105.302 59.7721 104.219 59.7721H98.9264V72H101.756V68.5937H104.219H104.359ZM106.001 62.637C106.444 62.998 106.665 63.522 106.665 64.2091C106.665 64.8846 106.444 65.4086 106.001 65.7813C105.559 66.1539 104.912 66.3403 104.062 66.3403H101.756V62.078H104.062C104.912 62.078 105.559 62.2643 106.001 62.637ZM115.964 69.7291V62.043H118.078V59.7721H111.003V62.043H113.134V69.7291H111.003V72H118.078V69.7291H115.964ZM125.753 62.0256C126.953 62.2003 128.077 62.5904 129.125 63.1959L130.086 61.0823C129.259 60.5815 128.35 60.203 127.361 59.9468C126.382 59.6906 125.369 59.5625 124.321 59.5625C123.285 59.5625 122.277 59.6906 121.299 59.9468C120.321 60.203 119.412 60.5815 118.574 61.0823L119.535 63.1959C120.594 62.5904 121.724 62.2003 122.924 62.0256V72H125.753V62.0256Z" fill="white"/>
</svg>
