<?xml version="1.0" standalone="no"?>
<!DOCTYPE svg PUBLIC "-//W3C//DTD SVG 20010904//EN"
 "http://www.w3.org/TR/2001/REC-SVG-20010904/DTD/svg10.dtd">
<svg version="1.0" xmlns="http://www.w3.org/2000/svg"
 width="1185.000000pt" height="1185.000000pt" viewBox="0 0 1185.000000 1185.000000"
 preserveAspectRatio="xMidYMid meet">
<metadata>
Created by potrace 1.14, written by Peter Selinger 2001-2017
</metadata>
<g transform="translate(0.000000,1185.000000) scale(0.100000,-0.100000)"
fill="#000000" stroke="none">
<path d="M4670 10863 c-793 -54 -1475 -251 -2126 -613 -1356 -754 -2283 -2104
-2493 -3630 -35 -257 -45 -409 -45 -690 0 -281 10 -424 45 -680 150 -1084 653
-2077 1440 -2845 377 -367 771 -648 1244 -886 542 -273 1100 -432 1755 -501
189 -20 755 -17 945 5 304 35 565 84 821 154 l130 35 110 -31 c236 -66 537
-123 839 -158 212 -24 775 -24 995 0 312 35 652 102 919 182 192 58 526 183
606 229 l30 17 -30 -6 c-55 -9 -258 -34 -390 -47 -198 -19 -827 -16 -1035 5
-573 60 -1098 190 -1585 392 -1365 567 -2380 1635 -2778 2925 -251 813 -241
1709 28 2515 424 1271 1442 2311 2802 2861 300 121 727 243 1058 303 363 65
595 85 1010 85 335 1 492 -8 764 -44 80 -11 146 -18 148 -16 2 2 -47 25 -109
51 -1016 427 -2110 509 -3168 238 -96 -25 -186 -47 -200 -50 -14 -2 -83 12
-155 32 -284 78 -670 142 -995 165 -132 9 -469 11 -580 3z m1230 -380 c0 -5
-47 -28 -103 -52 -224 -96 -573 -296 -811 -465 -597 -424 -1075 -950 -1441
-1586 -311 -539 -531 -1197 -609 -1820 -49 -395 -50 -853 -1 -1245 53 -422
182 -907 342 -1285 481 -1135 1367 -2057 2470 -2570 79 -37 146 -70 150 -74
14 -14 -386 16 -596 45 -1190 165 -2261 695 -3058 1513 -742 761 -1162 1674
-1244 2701 -15 185 -7 567 16 755 143 1185 770 2247 1775 3009 629 477 1322
789 2141 965 229 49 613 98 854 109 39 2 80 4 93 5 12 1 22 -1 22 -5z"/>
<path d="M6662 8502 c-38 -12 -91 -61 -113 -104 -13 -25 -26 -79 -32 -135
l-11 -93 -101 0 c-110 0 -125 4 -428 121 l-137 53 -110 -18 c-129 -20 -391
-84 -472 -115 -78 -30 -173 -95 -203 -139 -41 -60 -28 -130 41 -211 34 -41
121 -91 157 -91 73 0 139 60 161 147 15 60 17 60 261 75 l190 11 73 -37 c39
-20 72 -40 72 -44 0 -16 -301 -356 -450 -507 -178 -181 -179 -182 -205 -370
-12 -83 -24 -127 -50 -181 -37 -75 -246 -393 -319 -484 -24 -30 -81 -122 -126
-205 -130 -239 -180 -293 -286 -315 -31 -7 -68 -23 -85 -38 -32 -26 -32 -26
-26 -103 7 -85 51 -235 103 -348 44 -95 95 -145 164 -160 67 -14 74 -14 99 7
19 14 24 33 32 122 12 131 34 262 60 360 20 74 21 76 156 220 249 264 616 653
720 764 l104 108 81 -33 81 -33 -39 -33 c-68 -57 -288 -215 -319 -228 -16 -8
-45 -19 -64 -26 -19 -7 -65 -42 -103 -78 -72 -70 -74 -74 -69 -176 5 -105 79
-295 145 -371 65 -76 139 -83 195 -19 44 50 61 121 68 274 l6 133 41 30 c76
54 582 288 625 288 27 0 82 41 108 79 45 66 23 153 -72 280 -50 67 -223 247
-288 298 l-37 30 232 207 c128 115 238 210 244 213 7 2 49 -23 95 -56 103 -73
258 -165 315 -187 56 -21 103 -10 239 56 119 57 191 110 306 222 110 107 129
146 129 261 0 177 -64 225 -207 158 -115 -55 -183 -139 -198 -243 -8 -55 -11
-56 -140 -65 l-90 -6 -90 61 c-49 33 -105 73 -124 89 l-34 29 47 68 c69 100
97 162 103 223 l6 55 -74 71 c-99 95 -181 139 -268 143 -36 2 -76 0 -89 -4z
m175 -138 c23 -13 65 -46 95 -73 l52 -48 -33 -66 c-18 -36 -59 -98 -92 -139
-75 -94 -76 -111 -6 -173 71 -63 246 -180 292 -195 50 -17 234 -7 297 15 26 9
58 28 72 42 23 23 25 31 20 77 -5 43 -2 56 18 86 27 40 111 100 139 100 17 0
19 -8 19 -63 0 -84 -29 -128 -159 -240 -98 -84 -199 -147 -300 -187 l-53 -21
-64 36 c-78 43 -261 164 -328 216 -27 22 -57 39 -67 39 -11 0 -36 -15 -56 -33
-481 -426 -573 -512 -573 -537 0 -22 4 -27 111 -110 127 -99 300 -294 336
-378 12 -30 12 -37 -2 -58 -8 -13 -24 -24 -34 -24 -58 0 -603 -257 -696 -328
l-50 -38 -8 -139 c-8 -151 -22 -241 -39 -251 -36 -23 -148 233 -148 338 0 31
7 43 50 81 27 24 63 47 80 51 54 10 284 173 458 322 61 53 69 89 26 123 -35
27 -277 121 -313 121 -24 0 -91 -66 -487 -486 -575 -610 -549 -579 -573 -662
-24 -79 -56 -257 -67 -360 -9 -99 -26 -93 -87 29 -45 91 -103 280 -93 305 2 6
21 15 42 19 79 14 156 69 218 153 18 26 75 120 125 210 50 89 120 199 155 245
133 173 300 439 322 515 8 26 21 92 30 147 8 55 19 116 25 135 8 24 62 87 174
200 133 136 413 449 489 547 36 47 18 67 -124 138 l-130 65 -114 0 c-217 0
-410 -29 -449 -69 -11 -11 -23 -42 -28 -71 -9 -61 -23 -80 -54 -80 -25 0 -115
82 -115 105 0 18 60 61 133 95 70 33 281 90 442 120 l107 20 102 -39 c55 -22
148 -57 206 -79 58 -22 135 -46 172 -52 92 -16 283 -10 302 10 9 10 17 54 23
130 10 125 24 167 63 188 33 17 94 7 147 -24z"/>
<path d="M4440 7823 c-41 -15 -51 -62 -20 -93 19 -19 33 -20 265 -20 232 0
246 1 265 20 24 24 25 49 6 76 -13 18 -30 19 -258 21 -134 1 -250 -1 -258 -4z"/>
<path d="M9345 7500 c-51 -16 -87 -62 -92 -117 -5 -64 21 -107 83 -135 67 -29
126 -19 176 32 33 33 38 44 38 84 0 86 -43 131 -132 141 -24 2 -57 0 -73 -5z"/>
<path d="M10407 7433 c-4 -3 -7 -267 -7 -585 l0 -578 124 0 124 0 4 253 c3
274 5 282 65 339 38 36 73 48 142 48 68 0 113 -25 145 -80 20 -32 21 -54 24
-297 l3 -263 120 0 119 0 0 284 c0 260 -2 290 -21 352 -27 88 -105 171 -189
200 -119 40 -286 17 -377 -52 l-33 -25 0 205 0 206 -118 0 c-65 0 -122 -3
-125 -7z"/>
<path d="M9752 6878 c3 -405 4 -425 24 -468 46 -100 148 -154 289 -154 85 0
182 25 192 50 4 11 -5 40 -46 146 -10 26 -11 27 -38 13 -15 -8 -47 -15 -71
-15 -35 0 -49 6 -73 29 l-29 29 0 201 0 201 105 0 106 0 -3 93 -3 92 -102 3
-103 3 0 99 0 100 -126 0 -125 0 3 -422z"/>
<path d="M4440 7253 c-43 -16 -53 -73 -18 -97 19 -14 70 -16 350 -16 315 0
329 1 348 20 24 24 25 49 6 76 -14 18 -30 19 -343 21 -180 1 -335 -1 -343 -4z"/>
<path d="M7712 6823 c3 -280 5 -301 26 -353 51 -129 153 -198 317 -216 111
-11 247 29 306 92 l22 23 45 -40 c59 -51 131 -73 242 -73 146 1 242 43 317
142 61 81 68 123 68 437 l0 280 -120 0 -120 0 -5 -275 c-5 -293 -8 -308 -59
-354 -33 -30 -126 -33 -168 -7 -67 42 -67 46 -73 356 l-5 280 -120 0 -120 0
-5 -270 c-5 -248 -7 -273 -26 -310 -35 -68 -120 -94 -200 -60 -26 11 -40 26
-57 62 -20 45 -22 67 -25 316 l-4 267 -120 0 -119 0 3 -297z"/>
<path d="M9287 7113 c-4 -3 -7 -195 -7 -425 l0 -418 120 0 120 0 0 425 0 425
-113 0 c-63 0 -117 -3 -120 -7z"/>
<path d="M4410 6661 c-34 -65 3 -91 130 -91 109 0 140 13 140 59 0 46 -14 51
-142 51 -106 0 -118 -2 -128 -19z"/>
<path d="M8120 5444 c-102 -21 -222 -86 -294 -157 -263 -262 -204 -734 112
-900 89 -47 174 -67 287 -67 100 0 175 17 247 54 l48 25 0 -29 0 -30 95 0 95
0 0 285 0 285 -115 0 -115 0 0 -148 c0 -169 2 -165 -85 -203 -109 -48 -256
-32 -351 39 -35 27 -59 57 -84 106 -34 66 -35 74 -35 175 0 94 3 113 27 162
33 72 95 134 167 168 49 23 68 26 161 26 119 0 168 -16 247 -81 l43 -36 78 72
c42 40 78 76 80 80 5 14 -107 99 -171 129 -120 57 -297 76 -437 45z"/>
<path d="M11085 5450 c-33 -6 -91 -19 -130 -31 -77 -22 -225 -88 -225 -99 0
-17 81 -180 89 -180 5 0 37 13 73 30 65 31 207 71 221 63 4 -2 7 -204 7 -449
l0 -444 130 0 130 0 0 449 0 449 68 -15 c37 -8 104 -31 150 -50 46 -19 84 -34
86 -32 8 10 76 168 76 177 0 18 -148 83 -249 109 -108 28 -321 39 -426 23z"/>
<path d="M8950 4891 l0 -551 130 0 130 0 0 150 0 150 118 0 117 -1 103 -149
103 -150 135 0 c105 0 134 3 128 13 -4 6 -56 82 -116 168 -59 87 -108 161
-108 167 0 5 13 15 29 22 51 21 121 97 154 168 29 61 31 76 31 162 -1 70 -6
107 -20 142 -46 113 -130 189 -254 230 -60 21 -88 22 -372 26 l-308 3 0 -550z
m596 315 c71 -33 99 -80 99 -166 0 -86 -28 -133 -99 -166 -46 -22 -65 -24
-193 -24 l-143 0 0 190 0 190 143 0 c128 0 147 -2 193 -24z"/>
<path d="M10040 5340 l0 -99 95 -3 c52 -2 95 -6 95 -10 0 -5 0 -161 0 -348 l0
-340 -95 0 -95 0 0 -100 0 -100 320 0 320 0 0 100 0 100 -95 0 -95 0 2 348 3
347 93 3 92 3 0 99 0 100 -320 0 -320 0 0 -100z"/>
<path d="M9702 3608 c-30 -30 0 -75 42 -64 29 7 43 41 26 61 -15 18 -52 19
-68 3z"/>
<path d="M11470 3607 c-39 -13 -70 -62 -70 -109 0 -24 -4 -28 -30 -28 -25 0
-30 -4 -30 -25 0 -21 5 -25 30 -25 l29 0 3 -152 3 -153 30 0 30 0 3 153 3 152
49 0 c47 0 50 2 50 25 0 23 -3 25 -50 25 -58 0 -69 13 -48 57 12 25 19 28 60
27 39 0 48 3 52 20 3 11 2 24 -2 28 -15 14 -78 17 -112 5z"/>
<path d="M11732 3609 c-39 -12 -72 -60 -72 -106 0 -30 -3 -33 -30 -33 -25 0
-30 -4 -30 -25 0 -21 5 -25 30 -25 l30 0 0 -155 0 -155 30 0 29 0 3 153 3 152
53 3 c48 3 52 5 52 28 0 23 -3 24 -56 24 l-57 0 6 37 c8 44 21 54 70 51 25 -2
41 3 47 12 15 23 12 27 -21 39 -37 13 -42 13 -87 0z"/>
<path d="M7612 3363 l3 -248 30 0 30 0 3 248 2 247 -35 0 -35 0 2 -247z"/>
<path d="M9272 3363 l3 -248 30 0 c29 0 30 2 33 50 2 38 10 57 29 78 15 15 32
27 39 27 7 0 42 -36 78 -80 60 -72 70 -80 102 -80 42 0 45 -7 -54 119 l-73 94
73 74 72 73 -38 0 c-34 0 -48 -9 -129 -85 l-92 -85 -3 155 -3 155 -34 0 -35 0
2 -247z"/>
<path d="M10310 3360 l0 -250 30 0 c29 0 30 1 30 48 0 42 4 52 38 86 l39 37
69 -85 c62 -77 72 -86 103 -86 43 0 40 6 -50 121 l-72 91 74 74 73 74 -38 0
c-34 0 -48 -9 -131 -85 -51 -47 -95 -85 -99 -85 -3 0 -6 70 -6 155 l0 155 -30
0 -30 0 0 -250z"/>
<path d="M8551 3582 c-23 -4 -23 -6 -17 -64 3 -34 6 -74 6 -90 0 -25 4 -29 23
-26 21 3 22 9 25 87 2 46 -1 87 -5 91 -4 3 -19 4 -32 2z"/>
<path d="M8260 3510 c0 -38 -2 -40 -30 -40 -25 0 -30 -4 -30 -25 0 -21 5 -25
29 -25 l29 0 3 -126 4 -126 33 -29 c25 -22 42 -29 75 -29 57 0 84 19 68 48
-10 18 -15 20 -38 11 -19 -7 -31 -6 -49 6 -23 15 -24 21 -24 130 l0 115 50 0
c47 0 50 2 50 25 0 23 -3 25 -50 25 l-50 0 0 40 c0 39 -1 40 -35 40 -34 0 -35
-1 -35 -40z"/>
<path d="M7900 3463 c-111 -45 -147 -204 -67 -292 54 -58 157 -77 233 -42 52
24 57 32 38 60 -15 21 -17 21 -35 5 -45 -41 -172 -25 -199 25 -26 49 -20 51
131 51 l142 0 -5 51 c-9 90 -65 142 -161 146 -34 1 -69 0 -77 -4z m120 -58
c16 -8 36 -25 44 -37 31 -44 24 -48 -94 -48 -93 0 -110 2 -110 16 0 28 21 55
53 69 42 18 71 18 107 0z"/>
<path d="M8733 3450 c-38 -23 -53 -48 -53 -90 0 -44 39 -76 108 -90 96 -19
102 -22 112 -40 6 -11 4 -24 -6 -38 -12 -18 -25 -22 -70 -22 -30 0 -71 7 -91
15 -20 8 -37 14 -38 13 -1 -2 -7 -13 -13 -24 -14 -27 -3 -37 53 -53 92 -25
193 -2 220 50 39 74 5 118 -108 143 -112 25 -137 59 -70 95 28 14 69 13 116
-3 34 -13 38 -12 47 4 16 29 12 37 -21 49 -52 18 -149 14 -186 -9z"/>
<path d="M9702 3293 l3 -178 30 0 30 0 3 178 2 177 -35 0 -35 0 2 -177z"/>
<path d="M9965 3447 c-54 -30 -85 -87 -85 -155 0 -108 77 -182 189 -182 42 0
118 35 132 61 8 16 5 21 -15 30 -21 10 -29 8 -52 -10 -32 -25 -92 -28 -133 -6
-58 30 -76 121 -36 182 36 54 127 66 174 22 20 -19 26 -20 47 -9 30 16 30 21
2 48 -52 48 -156 57 -223 19z"/>
<path d="M11015 3456 c-96 -42 -132 -177 -72 -268 42 -63 149 -96 224 -67 136
51 153 255 28 326 -46 26 -131 30 -180 9z m153 -62 c33 -22 55 -79 47 -122
-13 -70 -52 -102 -126 -102 -33 0 -48 7 -75 34 -29 29 -34 41 -34 83 0 107
100 164 188 107z"/>
</g>
</svg>
